<?xml version="1.0" encoding="UTF-8"?>
<svg version="1.1" xmlns="http://www.w3.org/2000/svg" width="4124" height="1118">
<path d="M0 0 C8.75137538 7.22939705 15.80093414 14.83102127 21.375 24.75 C22.06722656 25.96816406 22.06722656 25.96816406 22.7734375 27.2109375 C26.52141884 34.22988437 30.375 42.69916678 30.375 50.75 C31.00329208 50.74333817 31.63158417 50.73667633 32.27891541 50.72981262 C93.53993307 50.11065947 93.53993307 50.11065947 119.375 53.75 C120.06499084 53.84710266 120.75498169 53.94420532 121.46588135 54.04425049 C201.44136739 65.43254291 275.28994316 98.70695344 336.375 151.75 C337.10976562 152.38421875 337.84453125 153.0184375 338.6015625 153.671875 C340.53687143 155.35274092 342.45634366 157.05015774 344.375 158.75 C345.07254395 159.36270752 345.77008789 159.97541504 346.48876953 160.60668945 C353.02857344 166.41033742 359.25800982 172.47857745 365.42602539 178.6706543 C367.06739796 180.31741404 368.71408819 181.95872095 370.36132812 183.59960938 C375.90903562 189.14350545 381.31369445 194.75309133 386.375 200.75 C387.2634002 201.77163644 388.15267438 202.79251379 389.04296875 203.8125 C396.21688694 212.17651005 402.88714134 220.84534107 409.375 229.75 C409.87676758 230.43610352 410.37853516 231.12220703 410.89550781 231.82910156 C422.25202993 247.42149688 432.13996666 263.8274254 441.375 280.75 C441.79217285 281.50522949 442.2093457 282.26045898 442.63916016 283.03857422 C484.43897403 359.00303775 501.40758264 449.55574407 477.58251953 646.64599609 C470.04993036 672.48429001 459.999058 697.81287762 447.46923828 721.64697266 C446.20358755 724.07943928 444.97535322 726.52941584 443.74609375 728.98046875 C433.07828535 750.07326469 420.60200744 769.88159106 406.375 788.75 C405.91754395 789.35908203 405.46008789 789.96816406 404.98876953 790.59570312 C397.07556617 801.10010979 388.85610528 811.28644664 379.9296875 820.94921875 C377.99570712 823.0695 376.12032038 825.21254106 374.25390625 827.390625 C370.00877255 832.25636883 365.46077353 836.81471583 360.88696289 841.3684082 C359.43975615 842.81025221 357.99797974 844.25737116 356.55664062 845.70507812 C351.33305078 850.93269653 346.00814096 855.96604461 340.375 860.75 C339.41078125 861.595625 338.4465625 862.44125 337.453125 863.3125 C313.01813666 884.37248995 285.86143362 902.64734205 257.375 917.75 C256.42093262 918.25724609 255.46686523 918.76449219 254.48388672 919.28710938 C196.96086712 949.58967153 134.98365061 963.35102978 70.375 964.75 C69.49166992 964.77336426 68.60833984 964.79672852 67.69824219 964.82080078 C-24.69222703 967.15508228 -116.50856585 935.98944076 -189.625 879.75 C-190.26083008 879.2657959 -190.89666016 878.7815918 -191.55175781 878.28271484 C-210.73416778 863.65804549 -230.27607851 847.4053363 -245.9375 829 C-248.68298122 825.80814878 -251.51089615 822.71081173 -254.375 819.625 C-263.51380536 809.5986627 -271.54973564 798.63665269 -279.625 787.75 C-280.05167969 788.07871094 -280.47835937 788.40742187 -280.91796875 788.74609375 C-283.13833188 790.43540096 -285.37927096 792.09453811 -287.625 793.75 C-288.58148437 794.4615625 -289.53796875 795.173125 -290.5234375 795.90625 C-313.16470109 812.23032153 -339.25539471 817.8088506 -367.03515625 814.2890625 C-384.80161401 811.05879745 -400.81817673 803.34773154 -414.625 791.75 C-415.37523437 791.13382813 -416.12546875 790.51765625 -416.8984375 789.8828125 C-435.57347991 774.01221332 -448.26886251 748.99520018 -451.625 724.75 C-451.78533007 721.71756517 -451.81248548 718.68861597 -451.828125 715.65234375 C-451.83382507 714.78162735 -451.83952515 713.91091095 -451.84539795 713.0138092 C-451.85481524 711.17401328 -451.86136888 709.33420073 -451.86523438 707.49438477 C-451.874885 704.72055437 -451.9059167 701.94748327 -451.9375 699.17382812 C-452.02109758 685.61402702 -450.68105955 673.73938003 -444.5625 661.4375 C-444.17328369 660.63844238 -443.78406738 659.83938477 -443.38305664 659.01611328 C-434.74712176 641.66175102 -424.69469813 628.59869118 -409.19189453 616.94238281 C-407.9077157 615.96514233 -406.65081046 614.9521576 -405.40234375 613.9296875 C-391.72129613 602.83380599 -371.02140147 597.73675054 -353.64453125 597.57421875 C-352.30141687 597.55100576 -350.95831789 597.52688783 -349.61523438 597.50195312 C-347.53334412 597.46706384 -345.45201831 597.43759429 -343.36987305 597.42407227 C-328.47802241 597.30887885 -317.59117515 593.90402161 -306.46875 583.7890625 C-297.66741774 574.68306874 -291.69730425 562.36646518 -291.6015625 549.6328125 C-292.08132316 538.90132394 -295.05544877 530.30148322 -301.35546875 521.625 C-302.625 519.75 -302.625 519.75 -303.625 516.75 C-305.48723789 515.66498561 -305.48723789 515.66498561 -307.625 514.75 C-308.81768797 513.94513485 -310.00503406 513.132309 -311.1875 512.3125 C-319.88386879 506.86921731 -330.3207805 505.23407917 -340.35766602 507.31713867 C-343.16773872 508.08927007 -345.95778218 508.91574985 -348.75 509.75 C-370.72762628 515.73588169 -392.0943498 514.46304757 -412.34375 503.72265625 C-431.11585801 492.4370437 -443.97975515 474.60579874 -449.6953125 453.63671875 C-455.35334204 429.98235154 -452.56902045 407.05291274 -440.5078125 385.75 C-437.57445553 381.07610341 -434.28551573 376.87252257 -430.625 372.75 C-430.03332031 372.06421875 -429.44164062 371.3784375 -428.83203125 370.671875 C-415.68084937 356.42709804 -396.70290044 348.82910464 -377.640625 347.46484375 C-360.80232647 346.88880748 -344.97176739 351.02160145 -330.9375 360.4375 C-323.31041869 365.47383041 -315.59287741 367.6647176 -306.45703125 366.44921875 C-296.23748595 363.92604826 -288.15450713 358.55777505 -282.71875 349.61328125 C-277.19301301 339.63252379 -274.25186744 329.79763938 -276.7890625 318.4296875 C-278.38225893 313.32252512 -280.44651502 307.92335913 -284.28515625 304.09375 C-285.625 302.75 -285.625 302.75 -285.625 300.75 C-286.19863281 300.47285156 -286.77226563 300.19570313 -287.36328125 299.91015625 C-289.59196144 298.76694724 -291.68528065 297.50901149 -293.8125 296.1875 C-297.72800618 293.80465133 -301.71261856 291.65452877 -305.79125977 289.5715332 C-331.59153358 276.32490207 -349.84505779 256.08811667 -359.625 228.75 C-369.65803045 197.28936955 -367.38219767 165.40684059 -352.3125 136 C-338.13368643 110.81394959 -316.39047596 92.57394855 -288.625 84.75 C-285.63685215 83.94191247 -282.67769505 83.26076221 -279.625 82.75 C-278.98304688 82.63914062 -278.34109375 82.52828125 -277.6796875 82.4140625 C-251.72412799 78.76251991 -225.01458285 84.63865578 -203.79443359 100.17651367 C-192.14123924 108.97861207 -179.64201107 119.82302528 -174.625 133.875 C-170.76135764 144.29362534 -163.30415702 148.95173423 -153.69921875 153.4375 C-146.77668793 156.39298965 -139.05966362 157.44121622 -131.71386719 155.15527344 C-121.28624627 150.95277411 -112.64331383 144.97457948 -107.625 134.75 C-102.60998057 121.95730131 -106.53323949 109.91409028 -111.15625 97.6953125 C-111.41970215 96.99841309 -111.6831543 96.30151367 -111.95458984 95.58349609 C-112.46679477 94.24182731 -112.98732518 92.90329239 -113.51806641 91.56884766 C-121.07531056 72.18937996 -119.34210707 49.86822926 -111.3125 30.9375 C-100.90122062 9.83099726 -85.50721264 -3.46869775 -63.546875 -11.35546875 C-42.04311646 -17.35062656 -17.89930737 -13.29931055 0 0 Z M-188.625 442.75 C-187.625 444.75 -187.625 444.75 -187.625 444.75 Z M-189.625 454.75 C-189.625 456.73 -189.625 458.71 -189.625 460.75 C-189.295 460.75 -188.965 460.75 -188.625 460.75 C-188.625 458.77 -188.625 456.79 -188.625 454.75 C-188.955 454.75 -189.285 454.75 -189.625 454.75 Z M-190.625 469.75 C-190.625 474.04 -190.625 478.33 -190.625 482.75 C-190.295 482.75 -189.965 482.75 -189.625 482.75 C-189.625 478.46 -189.625 474.17 -189.625 469.75 C-189.955 469.75 -190.285 469.75 -190.625 469.75 Z M-191.625 489.75 C-192.21204445 529.80945587 -192.21204445 529.80945587 -189.625 569.75 C-189.295 569.75 -188.965 569.75 -188.625 569.75 C-188.50806671 563.12378051 -188.66806591 556.54998038 -189.09375 549.9375 C-189.81557128 537.84342316 -189.97472734 525.736541 -190.1875 513.625 C-190.23081775 511.29817144 -190.2744356 508.97134845 -190.31835938 506.64453125 C-190.42402429 501.01308017 -190.5260164 495.38157228 -190.625 489.75 C-190.955 489.75 -191.285 489.75 -191.625 489.75 Z M-188.625 570.75 C-188.625 573.72 -188.625 576.69 -188.625 579.75 C-188.295 579.75 -187.965 579.75 -187.625 579.75 C-187.625 576.78 -187.625 573.81 -187.625 570.75 C-187.955 570.75 -188.285 570.75 -188.625 570.75 Z M-187.625 579.75 C-187.625 582.39 -187.625 585.03 -187.625 587.75 C-187.295 587.75 -186.965 587.75 -186.625 587.75 C-186.625 585.11 -186.625 582.47 -186.625 579.75 C-186.955 579.75 -187.285 579.75 -187.625 579.75 Z M-186.625 587.75 C-186.625 589.73 -186.625 591.71 -186.625 593.75 C-186.295 593.75 -185.965 593.75 -185.625 593.75 C-185.625 591.77 -185.625 589.79 -185.625 587.75 C-185.955 587.75 -186.285 587.75 -186.625 587.75 Z M-185.625 594.75 C-185.625 596.4 -185.625 598.05 -185.625 599.75 C-185.295 599.75 -184.965 599.75 -184.625 599.75 C-184.625 598.1 -184.625 596.45 -184.625 594.75 C-184.955 594.75 -185.285 594.75 -185.625 594.75 Z M-184.625 600.75 C-183.625 604.75 -183.625 604.75 -183.625 604.75 Z M-183.625 606.75 C-182.625 609.75 -182.625 609.75 -182.625 609.75 Z " fill="#0F7A95" transform="translate(915.625,153.25)"/>
<path d="M0 0 C11.27870465 10.82318346 18.0551677 23.74133238 18.93359375 39.46484375 C18.9661931 41.14305854 18.98829867 42.82150941 19 44.5 C19.03287109 45.29728516 19.06574219 46.09457031 19.09960938 46.91601562 C19.15794447 53.83667913 17.53557068 60.01589294 15.70457458 66.62571716 C12.70163942 77.50106178 10.41616538 88.53196643 8.0625 99.5625 C7.82094177 100.6890097 7.57938354 101.81551941 7.33050537 102.97616577 C2.4102884 125.93792511 -1.89195222 148.94778307 -5.69799805 172.11889648 C-6.75985069 178.57620031 -7.8658922 185.01580448 -9.125 191.4375 C-10.34493682 197.75649859 -11.19009936 204.06176291 -11.91015625 210.453125 C-12.29230078 213.66459326 -12.81782308 216.83713819 -13.37109375 220.0234375 C-14.66192439 227.6290331 -15.54254221 235.27791987 -16.4375 242.9375 C-16.76872241 245.75806583 -17.10221711 248.57835156 -17.4375 251.3984375 C-17.51968277 252.09511536 -17.60186554 252.79179321 -17.6865387 253.50958252 C-18.19727167 257.77416379 -18.80512077 262.01318571 -19.46484375 266.2578125 C-20.71843398 274.87119055 -21.2536866 283.52843381 -21.81518555 292.20898438 C-21.99791899 295.03036942 -22.18869165 297.85111848 -22.38085938 300.671875 C-23.71578951 320.54240418 -24.67175523 340.39397981 -24.6875 360.3125 C-24.68850708 361.21671692 -24.68951416 362.12093384 -24.69055176 363.05255127 C-24.67932427 378.0825213 -23.89920327 392.70820943 -21.4375 407.5625 C-21.29296387 408.4812793 -21.14842773 409.40005859 -20.99951172 410.34667969 C-18.40252595 426.71077595 -18.40252595 426.71077595 -11.4375 441.5625 C-4.23756523 444.08555407 3.31531325 439.08915872 9.76025391 436.05908203 C12.98915034 434.45695785 16.18557281 432.80428174 19.375 431.125 C20.53064453 430.52099365 21.68628906 429.9169873 22.87695312 429.29467773 C37.74328519 421.47805624 52.3097118 413.08865537 66.34765625 403.86303711 C68.5625 402.5625 68.5625 402.5625 70.5625 402.5625 C70.69825439 401.40290771 70.83400879 400.24331543 70.97387695 399.04858398 C71.48994615 394.93037102 72.1928929 390.85943662 72.98046875 386.78515625 C73.11797546 386.0655925 73.25548218 385.34602875 73.39715576 384.60466003 C73.84406165 382.27730373 74.29619403 379.95102027 74.75 377.625 C74.90622833 376.82227661 75.06245667 376.01955322 75.22341919 375.19250488 C77.74044205 362.30634654 80.53986973 349.52511225 83.75585938 336.79345703 C84.63743304 333.26235961 85.48397719 329.72381839 86.328125 326.18359375 C95.95397208 286.07694709 108.0288364 245.39495384 124.5625 207.5625 C124.95050781 206.67127441 125.33851563 205.78004883 125.73828125 204.86181641 C141.3017904 169.4162857 159.68222109 135.72094779 186.5625 107.5625 C187.37460938 106.69753906 188.18671875 105.83257812 189.0234375 104.94140625 C209.36314735 83.84471691 238.69521988 66.96634156 268.5078125 66.2890625 C284.48047515 66.00901214 299.23713234 66.5154841 314.5625 71.5625 C315.27744629 71.78711914 315.99239258 72.01173828 316.72900391 72.24316406 C331.37807073 76.91644426 345.09209803 84.26909823 356.5625 94.5625 C357.1709375 95.08972656 357.779375 95.61695313 358.40625 96.16015625 C371.50522865 108.2767115 379.40746427 125.53651638 383.5625 142.5625 C383.99369141 144.21958984 383.99369141 144.21958984 384.43359375 145.91015625 C389.0089441 164.27723253 388.74839454 183.9686203 385.5625 202.5625 C385.43891113 203.28872559 385.31532227 204.01495117 385.18798828 204.76318359 C383.50841516 214.26854956 381.14163489 223.45577029 378.125 232.625 C377.84889893 233.46893311 377.57279785 234.31286621 377.28833008 235.18237305 C375.51824576 240.36097947 373.35395956 245.17549273 370.84594727 250.03686523 C369.56922725 252.54926177 368.38967442 255.08774693 367.23046875 257.65625 C358.32524912 277.17957823 347.38895071 295.35380375 334.5625 312.5625 C334.03132568 313.28276367 333.50015137 314.00302734 332.95288086 314.74511719 C326.70833004 323.20301779 320.32435576 331.50879228 313.5625 339.5625 C312.69135921 340.60933585 311.82026762 341.65621266 310.94921875 342.703125 C305.13343341 349.66318633 299.12973774 356.41589526 292.95410156 363.05761719 C291.57129913 364.55298459 290.2020419 366.05968812 288.8359375 367.5703125 C282.82643501 374.19217502 276.62498154 380.60367721 270.3125 386.9375 C269.56798584 387.68660645 268.82347168 388.43571289 268.05639648 389.20751953 C263.9831706 393.26942964 259.81836438 397.15543738 255.46044922 400.90966797 C252.48068476 403.50460049 249.62387702 406.22664747 246.75 408.9375 C241.77931045 413.58889178 236.70028808 418.0140005 231.3828125 422.26953125 C228.76591767 424.39711749 226.2179843 426.58239766 223.67651367 428.79833984 C215.95813727 435.5187344 207.926025 441.74827053 199.75341797 447.90380859 C197.54549051 449.57537747 195.3510257 451.26318035 193.16015625 452.95703125 C192.43159424 453.51914307 191.70303223 454.08125488 190.95239258 454.66040039 C189.59513657 455.70826706 188.23932635 456.75801126 186.88549805 457.81030273 C186.24781494 458.30087158 185.61013184 458.79144043 184.953125 459.296875 C184.28974121 459.82023437 183.62635742 460.34359375 182.94287109 460.8828125 C180.5625 462.5625 180.5625 462.5625 177.26416016 464.3046875 C170.9023158 467.75463088 170.9023158 467.75463088 166.70654297 473.44665527 C165.1350846 478.86907447 164.82539488 484.45622122 164.4375 490.0625 C164.27090835 491.83290936 164.09848944 493.60277953 163.92041016 495.37207031 C163.57596113 498.86272761 163.26070169 502.35385546 162.97265625 505.84960938 C162.5625033 510.73588518 161.9682589 515.5866036 161.31860352 520.4465332 C158.29444527 543.18874563 156.712237 566.16386694 155.4375 589.0625 C155.37971878 590.09148911 155.37971878 590.09148911 155.32077026 591.14126587 C155.03659554 596.2803308 154.79177435 601.42071365 154.5625 606.5625 C154.49834396 607.97654617 154.49834396 607.97654617 154.43289185 609.41915894 C153.58086264 628.65311032 153.27916612 647.8750648 153.25 667.125 C153.24783226 668.25758932 153.24783226 668.25758932 153.24562073 669.41305923 C153.19270993 703.83454117 154.67373771 738.11185901 160.33178711 772.12133789 C161.81888419 781.25788573 162.22858672 790.32464154 161.5625 799.5625 C155.39935898 805.72564102 129.51464464 802.68109546 120.875 802.75 C98.40801524 802.72528113 75.73183325 801.18889039 53.5625 797.5625 C51.68319329 789.19790721 50.6861301 780.80317577 49.8125 772.2878418 C49.57327477 769.97899123 49.31853183 767.67227121 49.0625 765.36523438 C45.72122389 734.01799309 45.18147456 702.44056224 45.24504852 670.94422913 C45.25009608 668.19771998 45.25154845 665.4512253 45.25250244 662.70471191 C45.28241425 622.18112153 47.19779704 581.95064788 50.5625 541.5625 C49.9637204 541.80750748 49.3649408 542.05251495 48.74801636 542.3049469 C27.784235 550.87393692 27.784235 550.87393692 17.5625 553.5625 C16.53769531 553.86027344 15.51289062 554.15804687 14.45703125 554.46484375 C5.660165 556.66152957 -2.96513021 556.87558592 -12 556.9375 C-13.2065625 556.95135742 -14.413125 556.96521484 -15.65625 556.97949219 C-24.24564025 556.93519294 -32.11759201 555.64599528 -40.4375 553.5625 C-41.3248584 553.35020752 -42.2122168 553.13791504 -43.12646484 552.91918945 C-68.08607157 546.70576937 -88.99312951 526.90340731 -102.21484375 505.61523438 C-105.68643553 499.78673124 -108.66733503 493.75106719 -111.4375 487.5625 C-111.71432617 486.94552246 -111.99115234 486.32854492 -112.27636719 485.69287109 C-130.66015007 443.96900198 -131.66492729 395.20593671 -131.625 350.3125 C-131.62439575 349.05517059 -131.6237915 347.79784119 -131.62316895 346.50241089 C-131.56305204 300.2303559 -127.67325632 254.4006797 -121.4375 208.5625 C-121.34511047 207.8811499 -121.25272095 207.1997998 -121.15753174 206.49780273 C-114.69909624 158.94938071 -107.04151816 111.40117993 -96.14794922 64.65185547 C-95.09339612 60.06618025 -94.09609774 55.46830848 -93.09326172 50.87109375 C-92.10896816 46.38483268 -91.09709423 41.90509956 -90.07958984 37.42626953 C-89.52747479 34.9637944 -89.00343799 32.49771585 -88.48828125 30.02734375 C-85.1125366 15.25655155 -76.71882545 3.28265906 -64.125 -5.125 C-42.99893523 -18.02088316 -18.73961508 -16.31249626 0 0 Z " fill="#FEFEFE" transform="translate(856.4375,315.4375)"/>
<path d="M0 0 C0.9132605 -0.00979385 1.826521 -0.01958771 2.76745605 -0.02967834 C22.90811275 -0.20113041 42.46029328 -0.10210607 62.2265625 4.23828125 C63.2165625 4.45258789 64.2065625 4.66689453 65.2265625 4.88769531 C94.53506527 11.44203822 121.88078262 23.66357736 146.2265625 41.23828125 C146.83322754 41.67527344 147.43989258 42.11226562 148.06494141 42.5625 C156.29478115 48.55454238 163.88982754 55.19347683 171.2265625 62.23828125 C171.79020508 62.77469238 172.35384766 63.31110352 172.93457031 63.86376953 C181.52697101 72.0789776 189.20601031 80.64463568 196.2265625 90.23828125 C196.99484375 91.285 197.763125 92.33171875 198.5546875 93.41015625 C213.76335803 114.78737846 225.28341424 138.25804343 233.2265625 163.23828125 C233.67939256 164.59645254 234.13250507 165.9545297 234.5859375 167.3125 C246.29437386 203.49454319 248.510497 244.65475266 243.2265625 282.23828125 C243.10297363 283.13208496 242.97938477 284.02588867 242.85205078 284.94677734 C235.99943348 332.63268756 216.29240933 379.60724364 183.21875 415.09375 C181.41962461 417.03045557 179.72947054 419.01976861 178.0390625 421.05078125 C169.00915204 431.3736581 158.32358275 440.23641562 147.2265625 448.23828125 C146.17082031 449.01300781 145.11507812 449.78773438 144.02734375 450.5859375 C95.58667524 485.07247493 32.65154707 496.97880823 -25.63232422 487.79052734 C-65.99117691 480.69494793 -103.68869838 464.13947176 -134.7734375 437.23828125 C-135.56621094 436.55636719 -136.35898438 435.87445312 -137.17578125 435.171875 C-149.28361146 424.51619947 -160.17884132 413.19831022 -169.7734375 400.23828125 C-170.19044922 399.68736816 -170.60746094 399.13645508 -171.03710938 398.56884766 C-211.39921318 345.21971747 -226.32061771 275.00437587 -217.7734375 209.23828125 C-211.33000766 162.76978137 -194.18585523 118.32547983 -163.7734375 82.23828125 C-163.32355469 81.69961426 -162.87367188 81.16094727 -162.41015625 80.60595703 C-153.8228632 70.33915713 -145.06116374 60.84946374 -134.5625 52.4765625 C-132.78145492 51.0472364 -131.02323931 49.58866168 -129.296875 48.09375 C-94.77986455 18.43904288 -45.39876546 0.40371745 0 0 Z M-17.7734375 98.23828125 C-18.48193848 98.42632324 -19.19043945 98.61436523 -19.92041016 98.80810547 C-41.96816729 104.9138624 -60.22198256 116.64551365 -76.7734375 132.23828125 C-77.43730469 132.83769531 -78.10117188 133.43710937 -78.78515625 134.0546875 C-105.58723812 159.22581104 -119.77908286 199.28567881 -121.68359375 235.33203125 C-121.71324219 236.29109375 -121.74289063 237.25015625 -121.7734375 238.23828125 C-121.81339844 239.21796875 -121.85335937 240.19765625 -121.89453125 241.20703125 C-122.67566204 277.59853652 -111.79417677 317.30923157 -87.7734375 345.23828125 C-87.05800781 346.07875 -86.34257812 346.91921875 -85.60546875 347.78515625 C-83.37921052 350.3226966 -81.09423995 352.78705353 -78.7734375 355.23828125 C-77.94199219 356.13417969 -77.11054688 357.03007813 -76.25390625 357.953125 C-53.58511567 381.61761648 -21.93110917 394.4721014 10.65161133 395.58740234 C46.14267915 396.03004891 77.62471311 381.15111974 103.2265625 357.23828125 C132.61892377 328.25414722 147.05655243 286.30496382 147.5390625 245.61328125 C147.37487182 203.74465691 133.03797791 164.71566285 104.2265625 134.23828125 C103.08960937 133.00464844 103.08960937 133.00464844 101.9296875 131.74609375 C81.05768662 109.85095557 50.42798657 95.76194299 20.13671875 95.03515625 C7.22951765 94.8865273 -5.24761431 94.89378567 -17.7734375 98.23828125 Z " fill="#000000" transform="translate(2621.7734375,476.76171875)"/>
<path d="M0 0 C2.41576881 -0.0040697 4.83153575 -0.00941381 7.24729919 -0.01593018 C13.10516704 -0.02814949 18.96290513 -0.02641659 24.82077682 -0.01769225 C29.58536655 -0.01089247 34.34992401 -0.01000886 39.11451721 -0.0132637 C39.79494088 -0.0137234 40.47536456 -0.0141831 41.17640713 -0.01465673 C42.55905895 -0.01561599 43.94171077 -0.01658863 45.32436258 -0.0175745 C58.26243433 -0.02611092 71.20044211 -0.0163218 84.13850337 -0.0001734 C95.21850691 0.0132282 106.29841613 0.01089961 117.37841797 -0.00292969 C130.27300742 -0.0190165 143.16754094 -0.02528711 156.06213903 -0.0160929 C157.43945153 -0.01513734 158.81676403 -0.01419422 160.19407654 -0.0132637 C160.87158338 -0.01280088 161.54909021 -0.01233805 162.24712756 -0.0118612 C167.00107427 -0.00928059 171.75498523 -0.01362215 176.50892639 -0.02070236 C182.91780599 -0.0293955 189.32650821 -0.02330709 195.73536873 -0.00601959 C198.08144398 -0.0020673 200.42753426 -0.00316712 202.77360344 -0.00980759 C221.55040735 -0.05803741 236.56272188 0.62137341 250.83007812 14.03662109 C261.27568519 24.60511766 266.05358151 37.05770502 266.18554688 51.90380859 C265.54668568 66.4059577 260.40411814 79.90541185 250.15429688 90.38818359 C240.16845024 98.5161983 230.16085846 102.55984585 217.30192566 102.50843811 C216.51769503 102.50929254 215.73346441 102.51014696 214.92546922 102.51102728 C212.30144507 102.5126725 209.67748505 102.50717637 207.0534668 102.50170898 C205.17097983 102.50142688 203.28849276 102.5015853 201.40600586 102.50215149 C196.29695112 102.50243856 191.18791982 102.49655641 186.07887053 102.48957753 C180.73904905 102.48332896 175.39922704 102.482739 170.05940247 102.48155212 C159.94830513 102.47844325 149.83721859 102.47023583 139.72612602 102.46020263 C126.06256287 102.44693847 112.39899677 102.441538 98.73542881 102.43570042 C77.20837674 102.42629566 55.68134747 102.40637376 34.15429688 102.38818359 C34.15429688 158.81818359 34.15429688 215.24818359 34.15429688 273.38818359 C47.94726562 273.34177734 61.74023438 273.29537109 75.95117188 273.24755859 C84.69206029 273.22711921 93.43293137 273.2076976 102.17382812 273.19287109 C116.04612148 273.16915141 129.91831753 273.14129085 143.79052734 273.08642578 C153.89431053 273.04648411 163.99801465 273.02073323 174.10187459 273.01182961 C179.44892368 273.0066273 184.79574665 272.99445028 190.14272308 272.96526337 C195.18240776 272.93797845 200.22177458 272.92976494 205.26152611 272.93575287 C207.1044939 272.93465846 208.94747306 272.92678291 210.79037666 272.91136169 C227.49563842 272.77850943 239.53675752 275.58737803 252.18554688 287.26318359 C262.00199034 297.59628198 265.89533526 311.13761982 266.24804688 325.09912109 C265.59493296 339.89215136 260.21188866 353.34967041 249.34960938 363.57177734 C236.6480249 374.08109546 224.07417514 374.82733067 208.30224609 374.72875977 C206.39931756 374.72791251 204.49638805 374.72839056 202.59346008 374.73008728 C197.45156735 374.7309448 192.30988637 374.7133585 187.16804266 374.69236541 C181.78555226 374.67355796 176.40305652 374.67184496 171.02053833 374.66828918 C160.83873416 374.65898066 150.65702711 374.63438302 140.47526562 374.60424072 C128.87913745 374.57065956 117.28300454 374.55420136 105.68683982 374.53915441 C81.84260508 374.50783241 57.99845643 374.45509513 34.15429688 374.38818359 C34.15706225 375.57094439 34.15982763 376.75370518 34.16267681 377.97230721 C34.22775279 406.09470488 34.27716957 434.2170988 34.30749286 462.33955569 C34.31124466 465.80644872 34.31512765 469.27334158 34.3190918 472.74023438 C34.31987873 473.43038466 34.32066566 474.12053494 34.32147644 474.83159886 C34.33450442 485.98339041 34.35814378 497.13513522 34.38575526 508.2868991 C34.41388225 519.74303318 34.43026417 531.19912946 34.43656236 542.65529907 C34.44046472 549.08441552 34.44960187 555.51342622 34.47148705 561.9425087 C34.49194427 568.00155867 34.49811203 574.06045994 34.49361992 580.11954117 C34.494441 582.3357728 34.50035125 584.55200974 34.5119133 586.76821136 C34.61519161 607.59718773 32.873176 626.41643506 17.60351562 642.20458984 C6.18372017 652.38587479 -6.71352579 656.9613565 -21.85742188 656.66552734 C-31.94452787 655.96407335 -40.66146162 652.18770645 -48.84570312 646.38818359 C-49.53148437 645.90994141 -50.21726562 645.43169922 -50.92382812 644.93896484 C-61.37666332 636.77011529 -68.26329455 623.4413979 -70.12401773 610.44414015 C-70.78610295 604.84638906 -70.98785383 599.34532742 -70.97433758 593.71189499 C-70.97609062 592.77511124 -70.97784365 591.8383275 -70.97964981 590.87315637 C-70.98429418 587.74051622 -70.98184834 584.60792281 -70.97941589 581.47528076 C-70.98128465 579.20401288 -70.98358561 576.93274533 -70.98628122 574.66147828 C-70.99239758 568.42463958 -70.99226581 562.18781429 -70.99108684 555.95097327 C-70.99090376 549.9139631 -70.99539508 543.87695749 -70.99969973 537.8399493 C-71.00936424 523.96890457 -71.01218363 510.09786355 -71.01275679 496.22681585 C-71.01321655 485.5139444 -71.01527604 474.80107441 -71.01845741 464.08820343 C-71.01935497 461.00311669 -71.02024479 457.91802995 -71.02113229 454.8329432 C-71.02135334 454.06595486 -71.02157439 453.29896652 -71.02180213 452.50873612 C-71.02795522 430.93853168 -71.03190281 409.36832775 -71.03145885 387.79812241 C-71.03144328 386.98508839 -71.0314277 386.17205437 -71.03141165 385.33438295 C-71.03132854 381.21370525 -71.0312295 377.09302755 -71.03112694 372.97234985 C-71.03110699 372.15398672 -71.03108705 371.33562359 -71.0310665 370.49246157 C-71.03102606 368.8375324 -71.03098426 367.18260324 -71.03094111 365.52767407 C-71.03032838 339.78081352 -71.0378349 314.03396615 -71.05151367 288.28710938 C-71.06687989 259.35222458 -71.07547958 230.41734844 -71.07455045 201.48245931 C-71.07447582 198.39611514 -71.07442711 195.30977098 -71.07439613 192.22342682 C-71.07438448 191.46350591 -71.07437282 190.70358499 -71.07436082 189.92063618 C-71.07433007 177.70103677 -71.08071104 165.48144881 -71.0893284 153.26185281 C-71.09781222 140.97740599 -71.0987891 128.69297589 -71.09221908 116.40852776 C-71.08885273 109.755868 -71.08890358 103.10324079 -71.09757233 96.4505825 C-71.10543035 90.35741013 -71.10401294 84.26431208 -71.09528819 78.17114154 C-71.09375169 75.96998218 -71.09557504 73.76881731 -71.10114827 71.56766447 C-71.15311458 49.5828265 -69.63253422 31.35509835 -53.97460938 14.35693359 C-38.68044776 -0.14231318 -19.67955713 -0.05570229 0 0 Z " fill="#000000" transform="translate(1974.845703125,309.61181640625)"/>
<path d="M0 0 C0.67804687 0.52851563 1.35609375 1.05703125 2.0546875 1.6015625 C6.69589218 5.70099232 9.57451661 10.36764881 12.375 15.8125 C12.70894775 16.45171387 13.04289551 17.09092773 13.38696289 17.74951172 C17.64777664 26.53860476 18.29997555 35.97622682 18.25828552 45.60998535 C18.26196123 46.61869926 18.26563693 47.62741317 18.26942402 48.66669416 C18.27932997 52.01547917 18.27526795 55.36409569 18.27124023 58.71289062 C18.2756317 61.12700577 18.28093538 63.54111939 18.28707886 65.95523071 C18.2985496 71.14045258 18.30422929 76.32564652 18.30496025 81.51087952 C18.30629275 89.02837036 18.32146532 96.54578766 18.34045542 104.06325239 C18.37124488 116.28988048 18.39543131 128.51651045 18.41333008 140.74316406 C18.4149391 141.83886614 18.4149391 141.83886614 18.41658062 142.9567036 C18.42838608 151.09552374 18.43859407 159.23434462 18.44702148 167.37316895 C18.45009533 170.32006838 18.45318416 173.2669678 18.45629883 176.21386719 C18.45744684 177.30458061 18.45744684 177.30458061 18.45861804 178.41732866 C18.47175164 190.59142313 18.49646332 202.7654644 18.53004223 214.93951941 C18.54840755 221.75928571 18.56092627 228.57896459 18.55874443 235.39875793 C18.55698161 241.82078159 18.56889856 248.24263829 18.59086227 254.66462326 C18.59641614 257.00775381 18.59698969 259.35090292 18.59192467 261.69403458 C18.52368519 296.99115432 25.4576307 330.98541883 51 357 C51.73605469 357.76054688 52.47210937 358.52109375 53.23046875 359.3046875 C66.11192704 371.77618313 83.4468633 379.06879659 101 382 C101.65355469 382.11085938 102.30710937 382.22171875 102.98046875 382.3359375 C128.64052101 385.89849635 155.31161126 379.91535483 176.3125 364.625 C200.80107196 345.37932709 212.42977421 317.00365474 216.29195374 286.71001267 C216.93645575 280.62709292 217.14290449 274.62876828 217.13130188 268.5145874 C217.13341759 267.50728364 217.13553331 266.49997988 217.13771313 265.46215177 C217.14366818 262.11245198 217.14271621 258.76279035 217.1418457 255.41308594 C217.14488017 253.00085893 217.14840242 250.5886325 217.15237427 248.17640686 C217.16024123 242.99334469 217.16541994 237.81028692 217.16866493 232.62722015 C217.17418822 224.42294776 217.19111235 216.21871632 217.21000671 208.01446533 C217.21636215 205.20122916 217.22267077 202.38799289 217.22898388 199.57475662 C217.23056764 198.87184077 217.2321514 198.16892491 217.23378316 197.44470857 C217.2516899 189.4580964 217.26793097 181.47148137 217.28295898 173.48486328 C217.28433486 172.75550879 217.28571073 172.02615431 217.28712829 171.27469817 C217.30904932 159.46075021 217.31981391 147.64681298 217.32732973 135.83284828 C217.33541975 123.67574291 217.35876819 111.51872876 217.3952834 99.3616755 C217.41526051 92.54706642 217.42801161 85.73260142 217.42244911 78.91796112 C217.4177903 72.50576279 217.43167593 66.09386754 217.45946121 59.68173027 C217.4663512 57.33650393 217.46652334 54.99124611 217.45926094 52.64602089 C217.41319648 36.09127962 218.10750457 21.99489511 228 8 C228.7425 6.948125 229.485 5.89625 230.25 4.8125 C239.54461055 -4.6933517 250.80623116 -9.94514763 264 -11 C278.70336983 -11.15810075 290.52696538 -6.26444161 301.1875 3.75 C315.39975042 18.69687967 315.58776224 35.76206112 315.50170898 55.19604492 C315.50549714 57.63850719 315.51100125 60.0809673 315.51808167 62.52342224 C315.53055564 68.44670876 315.52450459 74.36979981 315.50940608 80.29306396 C315.49243484 87.21878007 315.49577085 94.14444435 315.49950016 101.07017485 C315.50536803 113.45299477 315.49125727 125.83571281 315.46655273 138.21850586 C315.44270283 150.17459953 315.43552348 162.13055675 315.44604492 174.08666992 C315.45752319 187.15317077 315.45929452 200.2196086 315.44494683 213.28610879 C315.44342131 214.68724811 315.44190095 216.08838742 315.44038582 217.48952675 C315.439628 218.17858918 315.43887019 218.86765161 315.43808941 219.57759472 C315.43339425 224.37807096 315.43516414 229.17851863 315.43945122 233.97899437 C315.44497071 240.48067193 315.43386735 246.98220519 315.41249657 253.48385048 C315.40700878 255.84823101 315.40638788 258.21262962 315.41144943 260.57701111 C315.51168683 314.19330215 302.50514321 370.95674027 266 412 C265.28457031 412.82371094 264.56914062 413.64742187 263.83203125 414.49609375 C250.32473455 429.82030116 235.61046791 442.6422059 218 453 C217.31905273 453.4007373 216.63810547 453.80147461 215.93652344 454.21435547 C195.76984113 465.8727919 173.91169077 473.08146662 151 477 C149.87996582 477.19480957 149.87996582 477.19480957 148.73730469 477.39355469 C100.5831585 485.31203934 46.26458942 474.49035259 6.375 445.875 C4.22546057 444.27863048 2.11310928 442.64534249 0 441 C-1.30130859 440.03126953 -1.30130859 440.03126953 -2.62890625 439.04296875 C-46.43150678 405.13774971 -69.65510258 353.70106984 -77.63037109 299.94165039 C-78.63113622 291.97717287 -79.14870969 284.15679877 -79.14717102 276.1282196 C-79.15084771 275.07937476 -79.1545244 274.03052991 -79.1583125 272.94990188 C-79.16926475 269.45967883 -79.17317863 265.96948564 -79.17700195 262.47924805 C-79.18327277 259.96687731 -79.18992012 257.4545075 -79.19691467 254.94213867 C-79.21606722 247.42523541 -79.22672858 239.90833743 -79.23564246 232.39141604 C-79.2400389 228.84316069 -79.24540186 225.2949068 -79.25063133 221.7466526 C-79.26762728 209.93988066 -79.28212175 198.1331096 -79.28938007 186.32632732 C-79.29128962 183.27004177 -79.29321002 180.21375623 -79.29516602 177.1574707 C-79.29564976 176.39794776 -79.2961335 175.63842481 -79.2966319 174.85588602 C-79.30493396 162.54975797 -79.33028115 150.24372704 -79.36274669 137.9376414 C-79.39587139 125.27773119 -79.41383339 112.61787031 -79.41702431 99.95791656 C-79.41918353 92.85994632 -79.42784652 85.76211809 -79.45348549 78.66419029 C-79.47755128 71.9869228 -79.48098449 65.30995436 -79.47072411 58.63263702 C-79.47022961 56.18860588 -79.4765243 53.74456201 -79.49028015 51.30056953 C-79.59152126 32.24010505 -78.30734056 16.86737532 -64.6875 2.1875 C-57.85612285 -4.17117025 -50.0321522 -7.91565718 -41 -10 C-39.9275 -10.2475 -38.855 -10.495 -37.75 -10.75 C-23.48838156 -11.70077456 -11.29259695 -8.87573118 0 0 Z " fill="#000000" transform="translate(3109,488)"/>
<path d="M0 0 C1.28890137 -0.01853027 2.57780273 -0.03706055 3.90576172 -0.05615234 C16.72717814 0.02915649 27.37515016 3.66967131 36.78515625 12.53515625 C46.67817456 23.0199065 50.97224021 35.58046876 50.77734375 49.89453125 C49.94525011 64.12546602 44.15972474 75.57168676 33.8125 85.25 C24.04270481 93.36325959 13.86677002 95.34774717 1.5 95.9375 C-22.98475098 97.15146347 -44.7184974 104.87307278 -62.375 122.5 C-63.13425781 123.24765625 -63.89351562 123.9953125 -64.67578125 124.765625 C-79.71204035 140.45111809 -87.58249758 161.39994041 -91.375 182.5 C-91.54260582 183.3805455 -91.71021164 184.261091 -91.88289642 185.1683197 C-93.82925733 196.78015732 -93.66823106 208.34023678 -93.66210938 220.08203125 C-93.66814297 222.44558953 -93.67506958 224.80914568 -93.68281555 227.17269897 C-93.69763668 232.23837915 -93.70643665 237.30402037 -93.71052551 242.36972046 C-93.71670082 249.70885375 -93.73495876 257.04791488 -93.75696605 264.3870126 C-93.79258228 276.3182177 -93.82093877 288.24942698 -93.84326172 300.18066406 C-93.84459671 300.89280347 -93.8459317 301.60494288 -93.84730715 302.33866227 C-93.8567331 307.39244116 -93.86589705 312.44622052 -93.875 317.5 C-93.88539862 323.27311232 -93.89591589 329.04622439 -93.90673828 334.81933594 C-93.90806902 335.53059509 -93.90939977 336.24185425 -93.91077083 336.97466671 C-93.93325759 348.8651893 -93.96347545 360.75568041 -93.99913073 372.64617062 C-94.0226038 380.60877553 -94.03619825 388.57134157 -94.04262543 396.53398132 C-94.04858783 401.49716133 -94.06270442 406.46029456 -94.07896996 411.42345047 C-94.08481682 413.71385715 -94.08732427 416.00427534 -94.08613014 418.29468918 C-94.07798731 440.15206392 -94.34881528 460.10814193 -110.47265625 476.65234375 C-120.51781001 486.16600789 -131.49687859 489.90991711 -145.16503906 489.86865234 C-158.44803887 489.48957834 -168.52181152 484.07778802 -178.125 475.1875 C-189.22444429 463.43514722 -192.53606368 448.48526343 -192.50871277 432.79104614 C-192.51097833 431.83081885 -192.51324388 430.87059156 -192.51557809 429.88126647 C-192.52189418 426.67229683 -192.52109022 423.46336969 -192.52026367 420.25439453 C-192.52325694 417.94912664 -192.52665986 415.64385926 -192.53044128 413.33859253 C-192.53927556 407.07719487 -192.54161936 400.81581088 -192.54225707 394.5544076 C-192.54296873 390.63293854 -192.54510541 386.71147293 -192.54775429 382.79000473 C-192.55653324 369.78766929 -192.56117421 356.78534352 -192.56042381 343.78300525 C-192.56038386 343.08262621 -192.5603439 342.38224718 -192.56030273 341.66064453 C-192.56024141 340.60876946 -192.56024141 340.60876946 -192.56017885 339.5356444 C-192.55977399 328.21714328 -192.56930244 316.89867568 -192.5834411 305.58018424 C-192.59789056 293.91924158 -192.60470638 282.25831516 -192.60384732 270.59736335 C-192.60359403 264.06686839 -192.60634993 257.53641125 -192.61702538 251.00592422 C-192.62682059 244.84498672 -192.62670864 238.68412224 -192.61950874 232.52318192 C-192.61847641 230.28254589 -192.62074351 228.04190505 -192.6268692 225.80127716 C-192.74149382 180.90295372 -185.92988829 137.38552894 -164.375 97.5 C-164.05031738 96.89075684 -163.72563477 96.28151367 -163.39111328 95.65380859 C-158.76570164 87.02692089 -153.45672685 79.17055168 -147.375 71.5 C-146.71242188 70.63246094 -146.04984375 69.76492188 -145.3671875 68.87109375 C-115.56340154 30.85143523 -70.73477842 7.7349496 -23.21875 1.1953125 C-15.4867192 0.30297955 -7.77392599 0.06396283 0 0 Z " fill="#000000" transform="translate(3796.375,476.5)"/>
<path d="M0 0 C11.39657614 10.85611995 15.66697163 24.97012126 16.0930866 40.36253786 C16.13192253 44.49625983 16.13829179 48.62890598 16.13371277 52.76275635 C16.13558286 54.36580672 16.13788435 55.96885665 16.14057809 57.57190585 C16.14667798 61.96169117 16.14656463 66.3514574 16.14538372 70.74124599 C16.14517925 75.48167001 16.15070282 80.22208797 16.15544128 84.96250916 C16.16373841 94.24411112 16.1664957 103.52570674 16.16705366 112.8073121 C16.16752926 120.35370734 16.16958617 127.90010048 16.17275429 135.44649506 C16.18155821 156.85376771 16.18617406 178.26103536 16.18542381 199.66830984 C16.18538386 200.82174708 16.1853439 201.97518433 16.18530273 203.16357422 C16.18526185 204.31842382 16.18522097 205.47327341 16.18517885 206.66311845 C16.18477243 225.37759993 16.19434169 244.09206128 16.2084411 262.80653694 C16.22281245 282.03404707 16.22971087 301.26154739 16.22884732 320.48906302 C16.22851562 331.27917821 16.23125098 342.06927229 16.24202538 352.85938263 C16.25114033 362.04631434 16.25329743 371.23321538 16.24651595 380.42014965 C16.24325582 385.10426052 16.24317576 389.78831259 16.2518692 394.47241783 C16.25975749 398.76698968 16.25827909 403.06145631 16.24958507 407.35602567 C16.2480552 408.90308451 16.24984672 410.45015129 16.25544515 411.99720076 C16.32138859 431.525458 13.98388624 448.7036847 -0.09765625 463.15234375 C-10.14281001 472.66600789 -21.12187859 476.40991711 -34.79003906 476.36865234 C-48.07303887 475.98957834 -58.14681152 470.57778802 -67.75 461.6875 C-77.99035025 450.8447762 -82.11221651 436.65927031 -82.13422108 421.99887943 C-82.13657331 421.32700009 -82.13892554 420.65512074 -82.14134905 419.96288142 C-82.14798762 417.71930206 -82.14758239 415.4757813 -82.14717102 413.23219299 C-82.15047285 411.60413286 -82.15419909 409.97607354 -82.1583125 408.34801525 C-82.16830427 403.87969604 -82.17204473 399.41139026 -82.17470181 394.94306147 C-82.17861324 390.12142344 -82.18819096 385.29979595 -82.19691467 380.47816467 C-82.21665505 368.83685674 -82.22674206 357.19554798 -82.23564246 345.5542275 C-82.2400292 340.06775141 -82.245395 334.58127628 -82.25063133 329.09480095 C-82.26764092 310.84923916 -82.28213432 292.60367797 -82.28938007 274.35810947 C-82.29128986 269.62586529 -82.29321021 264.89362112 -82.29516602 260.16137695 C-82.29564976 258.98524898 -82.2961335 257.80912101 -82.2966319 256.5973528 C-82.30492937 237.5517233 -82.33026274 218.50615666 -82.36274669 199.46055461 C-82.39584803 179.89295975 -82.4138316 160.32539681 -82.41702431 140.75777382 C-82.41918652 129.77691271 -82.42789286 118.79614329 -82.45348549 107.81530952 C-82.47523446 98.46223995 -82.48322226 89.10928433 -82.47351871 79.75619233 C-82.46898623 74.98862007 -82.4707988 70.22128274 -82.49028015 65.45374298 C-82.50800009 61.07926872 -82.50684319 56.70519927 -82.49138286 52.33072018 C-82.48902011 50.75797185 -82.49326017 49.18519482 -82.50521151 47.61249013 C-82.62608606 30.6390603 -79.81932118 14.00184101 -67.75 1.1875 C-48.75872668 -16.62478488 -19.46507649 -18.27958067 0 0 Z " fill="#0F7A95" transform="translate(1708,490)"/>
<path d="M0 0 C17.78684186 15.86945294 27.78561033 39.27050052 29.75 62.78540039 C31.05189461 87.27319514 25.05025627 113.17359974 8.55908203 131.98706055 C6.2862067 134.46684919 3.92660784 136.83639517 1.53417969 139.2019043 C0.73109375 140.01530273 -0.07199219 140.82870117 -0.89941406 141.66674805 C-18.45350587 158.52905299 -40.70205288 163.76720509 -64.32519531 163.47924805 C-87.15545784 162.7758632 -107.42966092 151.34181861 -122.93847656 135.10424805 C-142.23757099 112.94160947 -148.07480795 87.09626603 -146.46582031 58.2019043 C-144.02662086 35.31450189 -131.71369938 12.34182217 -114.21582031 -2.4855957 C-79.10046127 -29.72188526 -33.98791356 -29.25510162 0 0 Z " fill="#0F7A95" transform="translate(698.4658203125,22.798095703125)"/>
<path d="M0 0 C16.31636744 14.0845267 27.76313484 32.97624535 29.87109375 54.7734375 C31.17097803 77.22598418 26.20040943 99.20555974 11.19384766 116.65185547 C2.73479525 126.05578612 -7.02292363 133.67361916 -19 138 C-20.08410156 138.391875 -21.16820312 138.78375 -22.28515625 139.1875 C-40.89347437 145.01905127 -60.89793018 143.23899829 -78.375 134.75 C-96.59386054 125.00983733 -109.79317218 108.69993177 -116 89 C-116.29777344 88.06027344 -116.59554687 87.12054687 -116.90234375 86.15234375 C-122.45489304 65.09359689 -120.12613506 42.32579784 -109.9140625 23.18359375 C-107.02349955 18.37582068 -103.75917874 14.15488177 -100 10 C-99.33484375 9.24203125 -98.6696875 8.4840625 -97.984375 7.703125 C-72.60271466 -19.55865833 -29.46308557 -22.67009585 0 0 Z " fill="#0F7A95" transform="translate(169,580)"/>
<path d="M0 0 C11.03417053 9.30129171 18.8267232 20.49596368 24 34 C24.39445313 35.02738281 24.78890625 36.05476563 25.1953125 37.11328125 C31.74606392 57.33815365 29.45600074 80.34836717 20.3125 99.3125 C10.96760855 117.51056204 -4.81325673 130.81651398 -24.22265625 137.2578125 C-44.60584047 142.70479563 -63.70045153 139.9055343 -82.125 129.8125 C-100.70780889 118.42777519 -111.95445723 100.34384559 -117.23828125 79.54296875 C-121.60807872 59.21780819 -118.57966503 38.18646103 -107.75 20.3125 C-104.00338429 14.72914861 -99.70787724 9.79018279 -95 5 C-94.38640625 4.37351563 -93.7728125 3.74703125 -93.140625 3.1015625 C-67.19713205 -21.40062528 -27.59405041 -21.64850349 0 0 Z " fill="#0F7A95" transform="translate(428,251)"/>
<path d="M0 0 C14.91190023 15.45325635 20.89704251 34.83869824 20.71875 55.91064453 C20.54609972 62.50852278 19.76955605 68.27042557 17.3671875 74.453125 C16.95339844 75.64164062 16.53960938 76.83015625 16.11328125 78.0546875 C13.05246124 86.54886507 9.09441139 93.39959664 3.3671875 100.453125 C2.6246875 101.484375 1.8821875 102.515625 1.1171875 103.578125 C-11.11274241 116.36396082 -26.96233021 123.74853074 -44.6328125 124.453125 C-64.24077673 124.57354239 -80.36624445 117.78453691 -94.6328125 104.453125 C-109.34986215 89.39442955 -115.31343126 69.14590464 -115.10375977 48.53466797 C-114.43452603 28.14522842 -105.51831528 10.5858514 -90.7578125 -3.296875 C-63.25716144 -27.03603884 -26.09256877 -23.72051706 0 0 Z " fill="#FEFEFE" transform="translate(918.6328125,164.546875)"/>
<path d="M0 0 C2.82137603 2.22056502 5.49510744 4.53456721 8.15234375 6.94921875 C8.67183594 7.41956543 9.19132812 7.88991211 9.7265625 8.37451172 C31.75882631 28.58165629 43.97853206 56.02269006 45.28125 85.90625 C45.85119555 116.72130584 34.92261309 144.27126053 13.88964844 166.61083984 C-0.97569868 181.86172945 -20.02510433 192.38640774 -40.84765625 196.94921875 C-41.82992187 197.17222656 -42.8121875 197.39523437 -43.82421875 197.625 C-72.54893001 203.08046842 -102.33400918 196.68476583 -126.66943359 180.75683594 C-150.74544423 164.10511567 -166.88000626 139.26436434 -173.09765625 110.69921875 C-178.32547403 80.81188313 -172.12701265 52.06350291 -155.76171875 26.71875 C-138.61226577 2.58838586 -113.27065621 -13.80298205 -84.16015625 -19.1640625 C-54.61780448 -23.84568793 -24.33511405 -17.5252879 0 0 Z M-127.84765625 27.94921875 C-128.66105469 28.75230469 -129.47445312 29.55539062 -130.3125 30.3828125 C-146.11082332 46.82927216 -153.39952726 69.37435956 -153.20117188 91.88769531 C-152.50703784 116.39062666 -141.99141819 137.05054276 -124.84765625 153.94921875 C-123.83058594 154.98175781 -123.83058594 154.98175781 -122.79296875 156.03515625 C-105.53806583 172.40139464 -81.79531478 177.86044132 -58.76171875 177.2890625 C-35.41550773 176.2400882 -15.10889419 165.14832302 0.9140625 148.4609375 C18.37049641 128.87195494 24.51663521 104.689829 23.15234375 78.94921875 C20.7901904 55.86670012 7.58272712 34.75325622 -9.84765625 19.94921875 C-21.96214904 10.58193242 -35.79637445 4.67840923 -50.84765625 1.94921875 C-51.56308594 1.81773437 -52.27851563 1.68625 -53.015625 1.55078125 C-80.90032582 -2.70379166 -108.40770977 8.28804955 -127.84765625 27.94921875 Z " fill="#0F7A95" transform="translate(4078.84765625,324.05078125)"/>
<path d="M0 0 C0.83144531 0.62519531 1.66289063 1.25039063 2.51953125 1.89453125 C3.29941406 2.46816406 4.07929687 3.04179687 4.8828125 3.6328125 C14.99492767 11.78887085 21.39357307 23.40930543 24.51953125 35.89453125 C24.70773437 36.62929688 24.8959375 37.3640625 25.08984375 38.12109375 C27.65168884 54.65663934 25.53942034 71.43539248 16.24609375 85.58984375 C5.79808384 99.53628232 -6.97551614 109.14070334 -24.48046875 111.89453125 C-39.25188684 113.11434292 -53.38409742 109.94807343 -65.24609375 100.75 C-67.75453911 98.54572241 -70.13237548 96.26796366 -72.48046875 93.89453125 C-73.30804687 93.11722656 -73.30804687 93.11722656 -74.15234375 92.32421875 C-77.94545205 88.42914518 -80.28443792 83.75949672 -82.73046875 78.95703125 C-83.24311279 77.95434204 -83.24311279 77.95434204 -83.76611328 76.93139648 C-90.33960089 63.50438481 -90.67488475 46.4991697 -86.85546875 32.14453125 C-81.41837586 16.4540971 -71.45801918 3.44659189 -56.48046875 -4.10546875 C-37.99988208 -12.05358386 -16.86064757 -11.7259262 0 0 Z " fill="#0F7A95" transform="translate(1706.48046875,313.10546875)"/>
<path d="M0 0 C0.83257324 0.00942627 1.66514648 0.01885254 2.52294922 0.02856445 C8.6004833 0.17773921 13.97916069 0.83056308 19.5625 3.375 C20.30242187 3.70371094 21.04234375 4.03242188 21.8046875 4.37109375 C35.72181715 11.32965857 44.35845181 23.0984319 49.6171875 37.39453125 C53.96429052 51.10048003 52.5016446 66.26290514 46.2421875 79.078125 C39.12472161 91.75732653 28.84898586 100.64280013 15.1484375 105.65625 C1.65923129 109.40551577 -12.19646184 106.74174686 -24.4375 100.375 C-36.85842292 92.67572929 -44.21413599 82.22514961 -48.4375 68.375 C-51.24010942 56.01844727 -51.09844689 40.80303653 -45.4375 29.375 C-45.025 28.52164063 -44.6125 27.66828125 -44.1875 26.7890625 C-37.09853145 13.69863761 -25.8068425 5.49460191 -11.83959961 0.97924805 C-7.88611502 -0.01525082 -4.05832078 -0.07148132 0 0 Z " fill="#0F7A95" transform="translate(49.4375,182.625)"/>
<path d="M0 0 C3.25137722 2.10265716 6.12696803 4.41030452 9 7 C9.60199219 7.47566406 10.20398438 7.95132813 10.82421875 8.44140625 C17.76357215 14.41392839 23.96758148 25.83379777 25 35 C26.0695798 52.75770983 24.32015496 69.93483037 12.8125 84.3125 C3.73685266 93.86476777 -8.95747315 98.9967287 -22 100 C-22.65871094 100.0515625 -23.31742187 100.103125 -23.99609375 100.15625 C-36.04871854 100.67187031 -47.04508361 96.60951417 -56.0625 88.8125 C-66.59317114 78.8794283 -73.61128105 67.40201949 -74.23828125 52.59375 C-74.60638668 35.71727651 -71.40983443 21.50151246 -59.74609375 8.65625 C-44.32084668 -5.97530427 -18.88781061 -10.60602661 0 0 Z " fill="#0F7A95" transform="translate(389,705)"/>
<path d="M0 0 C10.00975267 10.52527641 12.78343465 23.85941782 12.44140625 37.90234375 C11.78849267 50.20475278 6.30508608 61.67947171 -2.6796875 70.1015625 C-13.88815532 79.14204815 -25.78857284 81.16712742 -39.8671875 80.2265625 C-50.43273266 78.49712663 -60.16222049 72.52560255 -66.8671875 64.2265625 C-75.24260823 52.51282549 -78.41282379 38.92776205 -76.2421875 24.6015625 C-73.18670172 11.0016552 -66.50643765 0.54186191 -55.03125 -7.52734375 C-36.51286154 -18.19045912 -15.24176822 -14.47649115 0 0 Z " fill="#0F7A95" transform="translate(341.8671875,59.7734375)"/>
<path d="M0 0 C10.49264507 10.10080356 14.58217983 21.23240805 15.625 35.6875 C15.769352 48.72729775 11.49774131 60.26440246 2.625 69.84765625 C-5.74409592 77.84313182 -15.80147699 82.11807697 -27.375 82.6875 C-41.57998576 82.056868 -51.75822457 77.11813034 -61.375 66.6875 C-63.78093772 63.50659708 -65.66752784 60.28840664 -67.375 56.6875 C-67.71402344 55.97722656 -68.05304688 55.26695312 -68.40234375 54.53515625 C-73.11936821 42.16655295 -71.6676315 25.54025405 -66.375 13.6875 C-64.90208792 10.84389687 -63.26864415 8.26581678 -61.375 5.6875 C-60.818125 4.82125 -60.26125 3.955 -59.6875 3.0625 C-44.52635324 -12.50840748 -16.57817082 -13.7209482 0 0 Z " fill="#0F7A95" transform="translate(202.375,354.3125)"/>
<path d="M0 0 C8.19773642 5.54513553 13.64692096 13.36661251 15.640625 23.140625 C17.0523244 34.372842 14.97546064 44.71339208 8.01171875 53.80859375 C1.48737371 60.91569582 -7.35402466 64.90919837 -17 65.375 C-26.44202574 64.91904705 -35.33590384 61.0103391 -41.7890625 54.078125 C-48.72218691 45.26656787 -50.82010623 36.09380063 -50 25 C-48.02250691 14.41184803 -42.85015443 6.1654515 -34 0 C-23.62891379 -6.1144317 -10.35540101 -6.16768385 0 0 Z " fill="#0F7A95" transform="translate(400,510)"/>
<path d="M0 0 C6.93 0 13.86 0 21 0 C24.375 5.625 24.375 5.625 25.53393555 9.0559082 C25.79397873 9.81631912 26.05402191 10.57673004 26.32194519 11.36018372 C26.59082047 12.1655809 26.85969574 12.97097809 27.13671875 13.80078125 C27.42102249 14.63715622 27.70532623 15.47353119 27.99824524 16.33525085 C28.90012529 18.99252085 29.79391487 21.65243056 30.6875 24.3125 C31.29959723 26.12062322 31.91222171 27.92856805 32.52539062 29.73632812 C34.02304075 34.1555095 35.51344364 38.57707512 37 43 C37.41362793 41.76846191 37.82725586 40.53692383 38.25341797 39.26806641 C39.78684154 34.70761024 41.3280215 30.14980754 42.87158203 25.59277344 C43.53907393 23.61855652 44.20444857 21.64362245 44.86767578 19.66796875 C45.82030919 16.83142801 46.78047997 13.99753755 47.7421875 11.1640625 C48.03809784 10.27756012 48.33400818 9.39105774 48.6388855 8.47769165 C48.91902496 7.65699188 49.19916443 6.83629211 49.48779297 5.99072266 C49.73206024 5.26680328 49.97632751 4.54288391 50.22799683 3.79702759 C51 2 51 2 53 0 C59.93 0 66.86 0 74 0 C74 21.45 74 42.9 74 65 C69.05 65 64.1 65 59 65 C58.67 50.48 58.34 35.96 58 21 C53.47786477 34.35641008 53.47786477 34.35641008 48.96533203 47.71606445 C48.39650669 49.39025494 47.8273557 51.06433483 47.2578125 52.73828125 C46.96575928 53.60819702 46.67370605 54.47811279 46.37280273 55.37438965 C46.08880615 56.20643921 45.80480957 57.03848877 45.51220703 57.89575195 C45.26793976 58.61745071 45.02367249 59.33914948 44.77200317 60.0827179 C44 62 44 62 42 65 C39.50390625 65.3984375 39.50390625 65.3984375 36.5625 65.375 C35.59441406 65.38273437 34.62632812 65.39046875 33.62890625 65.3984375 C30.50070297 64.92432645 29.94332043 64.42809878 28 62 C26.91259766 59.40307617 26.91259766 59.40307617 25.9140625 56.29296875 C25.35332031 54.5749707 25.35332031 54.5749707 24.78125 52.82226562 C24.3996875 51.62279297 24.018125 50.42332031 23.625 49.1875 C22.86878339 46.84713998 22.11096629 44.50729653 21.3515625 42.16796875 C21.01979004 41.12922607 20.68801758 40.0904834 20.34619141 39.02026367 C18.32408989 32.98146323 16.14191116 26.99735124 14 21 C13.67 35.52 13.34 50.04 13 65 C8.71 65 4.42 65 0 65 C0 43.55 0 22.1 0 0 Z " fill="#0F7A95" transform="translate(4007,381)"/>
<path d="M0 0 C-1.20687155 33.79240328 -31.82073494 69.12576858 -53 93 C-54.22975555 94.41615551 -55.45901902 95.83273869 -56.6875 97.25 C-57.78999194 98.50147734 -58.89428497 99.75136943 -60 101 C-60.76441406 101.86882812 -61.52882813 102.73765625 -62.31640625 103.6328125 C-63.11949219 104.53773438 -63.92257812 105.44265625 -64.75 106.375 C-65.48734375 107.20773437 -66.2246875 108.04046875 -66.984375 108.8984375 C-69 111 -69 111 -72 113 C-70.54768577 105.26252928 -67.97523641 98.23875254 -65.0625 90.9375 C-64.69993607 90.02434525 -64.69993607 90.02434525 -64.33004761 89.09274292 C-27.99988601 -2.23999088 -27.99988601 -2.23999088 0 0 Z " fill="#147B96" transform="translate(1137,494)"/>
<path d="M0 0 C17.16 0 34.32 0 52 0 C52 3.96 52 7.92 52 12 C46.06 12 40.12 12 34 12 C34 29.49 34 46.98 34 65 C29.05 65 24.1 65 19 65 C19 47.84 19 30.68 19 13 C12.73 13 6.46 13 0 13 C0 8.71 0 4.42 0 0 Z " fill="#0F7A95" transform="translate(3947,381)"/>
</svg>
